<svg height='200' width='200'  fill="#a6abb6" xmlns:dc="http://purl.org/dc/elements/1.1/" xmlns:cc="http://creativecommons.org/ns#" xmlns:rdf="http://www.w3.org/1999/02/22-rdf-syntax-ns#" xmlns:svg="http://www.w3.org/2000/svg" xmlns="http://www.w3.org/2000/svg" xmlns:sodipodi="http://sodipodi.sourceforge.net/DTD/sodipodi-0.dtd" xmlns:inkscape="http://www.inkscape.org/namespaces/inkscape" version="1.1" x="0px" y="0px" viewBox="0 0 100 100"><g transform="translate(0,-952.36218)"><path style="text-indent:0;text-transform:none;direction:ltr;block-progression:tb;baseline-shift:baseline;color:#000000;enable-background:accumulate;" d="m 16,973.36213 c -4.93405,0 -9,4.066 -9,9 l 0,40.00007 c 0,4.934 4.06595,9 9,9 l 68,0 c 4.93405,0 9,-4.066 9,-9 l 0,-40.00007 c 0,-4.934 -4.06595,-9 -9,-9 l -68,0 z m 0.71875,6 66.5625,0 -31.0625,27.09377 c -1.47046,1.2825 -3.03302,1.2815 -4.5,0 l -31,-27.09377 z M 13,984.08093 43.78125,1010.9871 c 3.5243,3.0789 8.85048,3.074 12.375,0 L 87,984.08093 l 0,38.28127 c 0,1.7138 -1.28617,3 -3,3 l -68,0 c -1.71383,0 -3,-1.2862 -3,-3 l 0,-38.28127 z" fill="#a6abb6" fill-opacity="1" stroke="none" marker="none" visibility="visible" display="inline" overflow="visible"></path></g></svg>