<svg height='300px' width='300px'  fill="#a6abb6" xmlns="http://www.w3.org/2000/svg" xmlns:xlink="http://www.w3.org/1999/xlink" version="1.1" x="0px" y="0px" viewBox="0 0 52 52" style="enable-background:new 0 0 52 52;" xml:space="preserve"><style type="text/css">
	.st0{fill:none;stroke:#a6abb6;stroke-width:2;stroke-miterlimit:10;}
	.st1{fill:none;stroke:#a6abb6;stroke-width:2;stroke-linecap:square;stroke-miterlimit:10;}
	.st2{fill:none;}
	.st3{fill:#a6abb6;}
	.st4{fill:none;stroke:#a6abb6;stroke-miterlimit:10;}
</style><g><g><rect x="24" y="44" width="4" height="2"></rect></g><g><path d="M38,50H14c-1.7,0-3-1.3-3-3V5c0-1.7,1.3-3,3-3h24c1.7,0,3,1.3,3,3v42C41,48.7,39.7,50,38,50z M14,4c-0.6,0-1,0.4-1,1v42    c0,0.6,0.4,1,1,1h24c0.6,0,1-0.4,1-1V5c0-0.6-0.4-1-1-1H14z"></path></g><g><rect x="22" y="6" width="8" height="2"></rect></g><g><rect x="12" y="40" width="28" height="2"></rect></g><g><rect x="12" y="10" width="28" height="2"></rect></g><g><path d="M19.3,33.1c-0.3,0-0.6-0.1-0.9-0.4c-0.3-0.3-0.4-0.8-0.3-1.3l1.1-3.2c-1-1.8-1.2-3.9-0.6-5.9c0.9-3.1,3.6-5.3,6.8-5.6    c2.6-0.2,5.2,0.8,6.8,2.9c1.6,2,2.2,4.7,1.4,7.2c-0.9,3.1-3.7,5.3-6.9,5.5c-1.3,0.1-2.5-0.1-3.6-0.6l-3.5,1.2    C19.5,33.1,19.4,33.1,19.3,33.1z M20,32.2L20,32.2C20,32.2,20,32.2,20,32.2z M26.2,18.9c-0.2,0-0.4,0-0.5,0    c-2.3,0.2-4.4,1.9-5,4.1c-0.5,1.6-0.3,3.3,0.6,4.7l0.3,0.4l-0.9,2.5l2.7-0.9l0.4,0.2c0.9,0.5,1.9,0.6,3,0.6    c2.3-0.2,4.4-1.8,5.1-4.1c0.6-1.9,0.2-3.9-1-5.4C29.6,19.6,27.9,18.9,26.2,18.9z"></path></g><g><path d="M27.5,28.6c-0.2,0-0.4-0.1-0.6-0.2c-0.1-0.1-3.5-2.6-3.5-5.8l0-0.6l2.2-1.1l1.1,2.8l-0.9,0.4c0.6,1.2,1.8,2.3,2.3,2.7    c0.4,0.3,0.5,1,0.2,1.4C28.1,28.5,27.8,28.6,27.5,28.6z"></path></g><g><path d="M24.9,24c-0.4,0-0.8-0.3-1-0.7l0-0.2c-0.1-0.5,0.2-1.1,0.7-1.2c0.5-0.1,1.1,0.2,1.2,0.7l0,0.2c0.1,0.5-0.2,1.1-0.7,1.2    C25,23.9,25,24,24.9,24z"></path></g><g><path d="M27.5,28.9l-0.5-0.3c-2.8-1.5-3.5-5.6-3.5-5.8c-0.1-0.5,0.3-1.1,0.8-1.1c0.5-0.1,1.1,0.3,1.1,0.8c0.1,0.7,0.5,2.2,1.3,3.3    l0.8-0.6l1.9,2.3L27.5,28.9z"></path></g></g></svg>