<svg height='300px' width='300px'  fill="#a6abb6" xmlns="http://www.w3.org/2000/svg" xmlns:xlink="http://www.w3.org/1999/xlink" version="1.1" x="0px" y="0px" viewBox="0 0 100 100" enable-background="new 0 0 100 100" xml:space="preserve"><path d="M83.457,33.809h-9.774c-1.933,0-3.5,1.567-3.5,3.5s1.567,3.5,3.5,3.5h9.139v34.953h-5.957c-1.933,0-3.5,1.567-3.5,3.5v4.132  l-8.268-6.83c-0.628-0.519-1.416-0.802-2.229-0.802H45.004v-7.073c0-1.933-1.567-3.5-3.5-3.5s-3.5,1.567-3.5,3.5v7.709  c0,3.509,2.854,6.364,6.362,6.364h17.242l13.026,10.761c0.64,0.528,1.432,0.802,2.23,0.802c0.506,0,1.015-0.109,1.49-0.334  c1.227-0.577,2.009-1.811,2.009-3.166v-8.062h3.093c3.509,0,6.364-2.855,6.364-6.364V40.173  C89.821,36.664,86.966,33.809,83.457,33.809z"></path><path d="M58.449,59.53c3.764,0,6.825-3.062,6.825-6.825V10.627c0-3.764-3.062-6.826-6.825-6.826H16.37  c-3.764,0-6.825,3.062-6.825,6.826v42.078c0,3.764,3.062,6.825,6.825,6.825h0.834v9.929c0,1.355,0.783,2.589,2.009,3.166  c0.476,0.225,0.984,0.334,1.491,0.334c0.799,0,1.59-0.273,2.229-0.802L38.22,59.53H58.449z M34.732,53.332l-10.528,8.696V56.03  c0-1.933-1.567-3.5-3.5-3.5h-4.159V10.801h41.729V52.53H36.961C36.147,52.53,35.359,52.813,34.732,53.332z"></path></svg>