<svg height='300px' width='300px'  fill="#a6abb6" xmlns:dc="http://purl.org/dc/elements/1.1/" xmlns:cc="http://creativecommons.org/ns#" xmlns:rdf="http://www.w3.org/1999/02/22-rdf-syntax-ns#" xmlns:svg="http://www.w3.org/2000/svg" xmlns="http://www.w3.org/2000/svg" xmlns:sodipodi="http://sodipodi.sourceforge.net/DTD/sodipodi-0.dtd" xmlns:inkscape="http://www.inkscape.org/namespaces/inkscape" viewBox="0 0 24.000001 24.000001" version="1.1" x="0px" y="0px"><g transform="translate(0,-1028.3622)"><path style="color:#a6abb6;font-style:normal;font-variant:normal;font-weight:normal;font-stretch:normal;font-size:medium;line-height:normal;font-family:sans-serif;text-indent:0;text-align:start;text-decoration:none;text-decoration-line:none;text-decoration-style:solid;text-decoration-color:#a6abb6;letter-spacing:normal;word-spacing:normal;text-transform:none;direction:ltr;block-progression:tb;writing-mode:lr-tb;baseline-shift:baseline;text-anchor:start;white-space:normal;clip-rule:nonzero;display:inline;overflow:visible;visibility:visible;opacity:1;isolation:auto;mix-blend-mode:normal;color-interpolation:sRGB;color-interpolation-filters:linearRGB;solid-color:#a6abb6;solid-opacity:1;fill:#a6abb6;fill-opacity:1;fill-rule:nonzero;stroke:none;stroke-width:0.97181696;stroke-linecap:butt;stroke-linejoin:round;stroke-miterlimit:4;stroke-dasharray:none;stroke-dashoffset:0;stroke-opacity:1;color-rendering:auto;image-rendering:auto;shape-rendering:auto;text-rendering:auto;enable-background:accumulate" d="M 11.492188 2.0019531 C 11.243698 2.0019531 10.995007 2.109 10.839844 2.25 C 10.684681 2.391 10.604868 2.5397563 10.539062 2.6601562 C 10.407453 2.9009562 10.33706 3.0101156 10.277344 3.0410156 L 8.4257812 4 L 6.2753906 4 C 5.5771391 4 5 4.5771907 5 5.2753906 L 5 19.724609 C 5 20.422809 5.5771391 21 6.2753906 21 L 17.724609 21 C 18.422861 21 19 20.422809 19 19.724609 L 19 5.2753906 C 19 4.5771907 18.422861 4 17.724609 4 L 15.726562 4 L 13.810547 3.0839844 C 13.712967 2.9780844 13.625004 2.8121312 13.476562 2.5820312 C 13.396603 2.4580313 13.293182 2.3161656 13.128906 2.1972656 C 12.96463 2.0783656 12.737238 2.0019531 12.507812 2.0019531 L 11.492188 2.0019531 z M 11.505859 3.0019531 L 12.507812 3.0019531 C 12.551142 3.0019531 12.533299 3.0017188 12.542969 3.0117188 C 12.552669 3.0217187 12.588159 3.0516531 12.636719 3.1269531 C 12.733849 3.2774531 12.859313 3.5792156 13.148438 3.8535156 L 13.205078 3.90625 L 14.992188 4.7617188 L 14.992188 5.5195312 C 14.992188 5.7966312 14.785014 6.0039062 14.507812 6.0039062 L 9.4921875 6.0039062 C 9.2518935 6.0039062 9.0078125 5.7028312 9.0078125 5.5195312 L 9.0078125 4.828125 L 10.738281 3.9335938 C 11.163036 3.7137938 11.312783 3.3314781 11.416016 3.1425781 C 11.463536 3.0555781 11.496309 3.0166594 11.505859 3.0058594 L 11.505859 3.0019531 z M 6.2753906 4.9726562 L 8.0078125 4.9726562 L 8.0078125 5.515625 C 8.0078125 6.302425 8.6414578 7 9.4921875 7 L 14.507812 7 C 15.321635 7 15.992187 6.329425 15.992188 5.515625 L 15.992188 4.9726562 L 17.724609 4.9726562 C 17.901218 4.9726562 18.027344 5.0987906 18.027344 5.2753906 L 18.027344 19.724609 C 18.027344 19.901209 17.901218 20.029297 17.724609 20.029297 L 6.2753906 20.029297 C 6.0987835 20.029297 5.9726563 19.901209 5.9726562 19.724609 L 5.9726562 5.2753906 C 5.9726562 5.0987906 6.0987835 4.9726562 6.2753906 4.9726562 z M 13.734375 8.484375 L 11.347656 11.007812 L 10.226562 9.9492188 L 9.5390625 10.675781 L 11.386719 12.421875 L 14.460938 9.171875 L 13.734375 8.484375 z M 8 14 L 8 15 L 16 15 L 16 14 L 8 14 z M 8 17 L 8 18 L 16 18 L 16 17 L 8 17 z " transform="translate(0,1028.3622)"></path></g></svg>